M48
METRIC,LZ,000.000
;FILE_FORMAT=3:3
;TYPE=PLATED
;Layer: PTH_Through
;EasyEDA v6.5.51, 2025-11-05 22:01:50
;5fc2a28f4a2a457aba051f804ec5b92e,7f41c4d4aa0246b98df4faf5fc11d5b9,10
;Gerber Generator version 0.2
;Holesize 1 = 0.501 mm
T01C0.501
;Holesize 2 = 0.889 mm
T02C0.889
%
G05
G90
T01
X050800Y114300
X048260Y114300
X045720Y114300
X038100Y114300
X035560Y114300
X040640Y114300
X043180Y114300
X032893Y114300
X030480Y114300
X054737Y120269
X054737Y122809
X054737Y125349
X054737Y127889
X054737Y130429
X054737Y132969
X029083Y120269
X029083Y122809
X029083Y125349
X029083Y127889
X029083Y130429
X029083Y132969
X034288Y139190
X034288Y134110
X034288Y131570
X034288Y129030
X034288Y126490
X034288Y123950
X034288Y121410
X034288Y118870
X036828Y118870
X034288Y136650
X039368Y118870
X041908Y118870
X044448Y118870
X046988Y118870
X049528Y118870
X049528Y121410
X049528Y123950
X049528Y126490
X049528Y129030
X049528Y131570
X049528Y134111
X049528Y136650
X049528Y139190
T02
X053340Y114300
M30
