G04 Layer: TopLayer*
G04 EasyEDA v6.5.51, 2025-11-05 22:01:50*
G04 5fc2a28f4a2a457aba051f804ec5b92e,7f41c4d4aa0246b98df4faf5fc11d5b9,10*
G04 Gerber Generator version 0.2*
G04 Scale: 100 percent, Rotated: No, Reflected: No *
G04 Dimensions in millimeters *
G04 leading zeros omitted , absolute positions ,4 integer and 5 decimal *
%FSLAX45Y45*%
%MOMM*%

%AMMACRO1*21,1,$1,$2,0,0,$3*%
%ADD10C,0.3500*%
%ADD11MACRO1,1.377X1.1325X-90.0000*%
%ADD12MACRO1,1.377X1.1325X0.0000*%
%ADD13R,1.3770X1.1325*%
%ADD14MACRO1,1.35X1.41X0.0000*%
%ADD15R,1.3500X1.4100*%
%ADD16R,0.0115X1.4100*%
%ADD17R,1.9000X1.9000*%
%ADD18C,1.9000*%
%ADD19C,0.9000*%

%LPD*%
D10*
X5372100Y13793978D02*
G01*
X5372100Y13600176D01*
X5433059Y13793978D02*
G01*
X5433059Y13600176D01*
X5433059Y13793978D02*
G01*
X5562345Y13600176D01*
X5562345Y13793978D02*
G01*
X5562345Y13600176D01*
X3721100Y12193524D02*
G01*
X3721100Y12166600D01*
X4165091Y12166600D01*
X4444745Y11886945D01*
X2908300Y12280900D02*
G01*
X3149600Y12522200D01*
X3530600Y12522200D01*
X3733800Y12725400D01*
X4203700Y12725400D01*
X4952745Y11886945D01*
X2908300Y12534900D02*
G01*
X3149600Y12776200D01*
X3543300Y12776200D01*
X3670300Y12903200D01*
X4254500Y12903200D01*
X4952745Y12140945D01*
X3721100Y12393599D02*
G01*
X3860800Y12533299D01*
X4038600Y12533299D01*
X4038600Y12333300D02*
G01*
X4252516Y12333300D01*
X4698763Y11887050D01*
X2908300Y13296900D02*
G01*
X2908300Y13703300D01*
X3289300Y14084300D01*
X4189399Y14084300D01*
X4635500Y13638199D01*
X2908300Y13042900D02*
G01*
X3098800Y13233400D01*
X3098800Y13716000D01*
X3301745Y13918945D01*
X3428745Y13918945D01*
X2908300Y12788900D02*
G01*
X3200400Y13081000D01*
X3200400Y13487400D01*
X3378052Y13665052D01*
X3428766Y13665052D01*
X5473700Y12026900D02*
G01*
X5334000Y11887200D01*
X5334000Y11430000D01*
X4952776Y12649045D02*
G01*
X5346631Y13042900D01*
X5473700Y13042900D01*
X4952776Y12395045D02*
G01*
X5346631Y12788900D01*
X5473700Y12788900D01*
X5929299Y12788900D02*
G01*
X5929299Y13042900D01*
X5929299Y13042900D01*
X5929299Y12534900D02*
G01*
X5929299Y12280900D01*
X5929299Y12280900D01*
X4635500Y13438200D02*
G01*
X4662647Y13411052D01*
X4952766Y13411052D01*
X4635500Y13638199D02*
G01*
X4662352Y13665052D01*
X4952766Y13665052D01*
X4952776Y12141045D02*
G01*
X5346631Y12534900D01*
X5473700Y12534900D01*
X4952776Y11887045D02*
G01*
X5003650Y11887045D01*
X5397505Y12280900D01*
X5473700Y12280900D01*
X5473700Y13296900D02*
G01*
X5105554Y13665045D01*
X4952776Y13665045D01*
X5473700Y13042900D02*
G01*
X5729300Y13042900D01*
X5473700Y12788900D02*
G01*
X5729300Y12788900D01*
X5473700Y12534900D02*
G01*
X5729300Y12534900D01*
X5473700Y12280900D02*
G01*
X5729300Y12280900D01*
X5929375Y12280900D02*
G01*
X5929375Y12126976D01*
X5829300Y12026900D01*
X5473700Y12026900D01*
X5473700Y13296900D02*
G01*
X5829300Y13296900D01*
X5929375Y13196824D01*
X5929375Y13042900D01*
X5473700Y13296900D02*
G01*
X6019800Y13296900D01*
X6096000Y13220700D01*
X6096000Y11861800D01*
X5486400Y11252200D01*
X5168900Y11252200D01*
X5080000Y11341100D01*
X5080000Y11430000D01*
X3721100Y12393676D02*
G01*
X3479800Y12280900D01*
X3276600Y12280900D01*
X3022600Y12026900D01*
X2908300Y12026900D01*
X4444745Y11886945D02*
G01*
X4444745Y11646154D01*
X4572000Y11518900D01*
X4572000Y11430000D01*
X4698745Y11886945D02*
G01*
X4698745Y11646154D01*
X4826000Y11518900D01*
X4826000Y11430000D01*
X4190745Y11886945D02*
G01*
X4190745Y11861545D01*
X3810000Y11480800D01*
X3810000Y11430000D01*
X4318000Y11430000D02*
G01*
X4318000Y11379200D01*
X4445000Y11252200D01*
X5168900Y11252200D01*
D11*
G01*
X5729295Y13042900D03*
G01*
X5929304Y13042900D03*
G01*
X5729295Y12788900D03*
G01*
X5929304Y12788900D03*
G01*
X5729295Y12280900D03*
G01*
X5929304Y12280900D03*
G01*
X5729295Y12534900D03*
G01*
X5929304Y12534900D03*
D12*
G01*
X3721100Y12193595D03*
D13*
G01*
X3721100Y12393599D03*
D12*
G01*
X4038600Y12333295D03*
D13*
G01*
X4038600Y12533299D03*
D14*
G01*
X4635500Y13638202D03*
D15*
G01*
X4635500Y13438200D03*
D17*
G01*
X5334000Y11430000D03*
D18*
G01*
X5080000Y11430000D03*
G01*
X4826000Y11430000D03*
G01*
X4572000Y11430000D03*
G01*
X3810000Y11430000D03*
G01*
X3556000Y11430000D03*
G01*
X4064000Y11430000D03*
G01*
X4318000Y11430000D03*
G01*
X3289300Y11430000D03*
G01*
X3048000Y11430000D03*
D17*
G01*
X5473700Y12026900D03*
D18*
G01*
X5473700Y12280900D03*
G01*
X5473700Y12534900D03*
G01*
X5473700Y12788900D03*
G01*
X5473700Y13042900D03*
G01*
X5473700Y13296900D03*
D17*
G01*
X2908300Y12026900D03*
D18*
G01*
X2908300Y12280900D03*
G01*
X2908300Y12534900D03*
G01*
X2908300Y12788900D03*
G01*
X2908300Y13042900D03*
G01*
X2908300Y13296900D03*
G01*
X3428771Y13919047D03*
G01*
X3428771Y13411047D03*
G01*
X3428771Y13157047D03*
D19*
G01*
X3428771Y12903047D03*
G01*
X3428771Y12649047D03*
G01*
X3428771Y12395047D03*
G01*
X3428771Y12141047D03*
D18*
G01*
X3428771Y11887047D03*
G01*
X3682771Y11887047D03*
G01*
X3428771Y13665047D03*
G01*
X3936771Y11887047D03*
G01*
X4190771Y11887047D03*
G01*
X4444771Y11887047D03*
G01*
X4698771Y11887047D03*
G01*
X4952771Y11887047D03*
G01*
X4952771Y12141047D03*
G01*
X4952771Y12395047D03*
G01*
X4952771Y12649047D03*
G01*
X4952771Y12903047D03*
G01*
X4952771Y13157047D03*
D17*
G01*
X4952771Y13411047D03*
D18*
G01*
X4952771Y13665047D03*
G01*
X4952771Y13919047D03*
M02*
